<svg id="visual" viewBox="0 0 900 600" width="900" height="600" xmlns="http://www.w3.org/2000/svg" xmlns:xlink="http://www.w3.org/1999/xlink" version="1.1"><rect x="0" y="0" width="900" height="600" fill="#010101"></rect><defs><linearGradient id="grad1_0" x1="33.3%" y1="0%" x2="100%" y2="100%"><stop offset="20%" stop-color="#010101" stop-opacity="1"></stop><stop offset="80%" stop-color="#010101" stop-opacity="1"></stop></linearGradient></defs><defs><linearGradient id="grad2_0" x1="0%" y1="0%" x2="66.7%" y2="100%"><stop offset="20%" stop-color="#010101" stop-opacity="1"></stop><stop offset="80%" stop-color="#010101" stop-opacity="1"></stop></linearGradient></defs><g transform="translate(900, 0)"><path d="M0 432.7C-58.7 429.5 -117.5 426.4 -165.6 399.7C-213.7 373.1 -251.1 322.9 -275.8 275.8C-300.4 228.7 -312.3 184.7 -336.3 139.3C-360.3 93.9 -396.5 46.9 -432.7 0L0 0Z" fill="#ba181b"></path></g><g transform="translate(0, 600)"><path d="M0 -432.7C42.6 -395.4 85.2 -358.2 142.4 -343.7C199.5 -329.1 271.3 -337.3 305.9 -305.9C340.6 -274.6 338 -203.8 352.9 -146.2C367.8 -88.6 400.3 -44.3 432.7 0L0 0Z" fill="#ba181b"></path></g></svg>